<mxfile host="Electron" agent="Mozilla/5.0 (Windows NT 10.0; Win64; x64) AppleWebKit/537.36 (KHTML, like Gecko) draw.io/24.7.8 Chrome/128.0.6613.36 Electron/32.0.1 Safari/537.36" version="24.7.8">
  <diagram name="PÃ¡gina-1" id="h0tKGvV3u8zTOi6XfyNI">
    <mxGraphModel dx="637" dy="372" grid="1" gridSize="10" guides="1" tooltips="1" connect="1" arrows="1" fold="1" page="1" pageScale="1" pageWidth="827" pageHeight="1169" math="0" shadow="0">
      <root>
        <mxCell id="0" />
        <mxCell id="1" parent="0" />
        <mxCell id="0-ZlnOKjUgS04xtEcJL--1" value="Internet" style="rounded=0;whiteSpace=wrap;html=1;verticalAlign=top;" vertex="1" parent="1">
          <mxGeometry x="80" y="330" width="120" height="260" as="geometry" />
        </mxCell>
        <mxCell id="0-ZlnOKjUgS04xtEcJL--2" value="" style="rounded=0;whiteSpace=wrap;html=1;" vertex="1" parent="1">
          <mxGeometry x="280" y="330" width="410" height="260" as="geometry" />
        </mxCell>
        <mxCell id="0-ZlnOKjUgS04xtEcJL--4" value="" style="shape=image;verticalLabelPosition=bottom;labelBackgroundColor=default;verticalAlign=top;aspect=fixed;imageAspect=0;image=https://a0.awsstatic.com/libra-css/images/logos/aws_logo_smile_1200x630.png;" vertex="1" parent="1">
          <mxGeometry x="280" y="330" width="57.15" height="30" as="geometry" />
        </mxCell>
        <mxCell id="0-ZlnOKjUgS04xtEcJL--5" value="" style="rounded=0;whiteSpace=wrap;html=1;verticalAlign=bottom;labelPosition=center;verticalLabelPosition=top;align=center;" vertex="1" parent="1">
          <mxGeometry x="336.15" y="370" width="332.85" height="190" as="geometry" />
        </mxCell>
        <mxCell id="0-ZlnOKjUgS04xtEcJL--6" value="VPC" style="text;html=1;align=center;verticalAlign=middle;whiteSpace=wrap;rounded=0;" vertex="1" parent="1">
          <mxGeometry x="336.15" y="370" width="40" height="20" as="geometry" />
        </mxCell>
        <mxCell id="0-ZlnOKjUgS04xtEcJL--25" style="edgeStyle=orthogonalEdgeStyle;rounded=0;orthogonalLoop=1;jettySize=auto;html=1;entryX=0;entryY=0.5;entryDx=0;entryDy=0;startArrow=classic;startFill=1;" edge="1" parent="1" source="0-ZlnOKjUgS04xtEcJL--7" target="0-ZlnOKjUgS04xtEcJL--21">
          <mxGeometry relative="1" as="geometry" />
        </mxCell>
        <mxCell id="0-ZlnOKjUgS04xtEcJL--7" value="" style="sketch=0;points=[[0,0,0],[0.25,0,0],[0.5,0,0],[0.75,0,0],[1,0,0],[0,1,0],[0.25,1,0],[0.5,1,0],[0.75,1,0],[1,1,0],[0,0.25,0],[0,0.5,0],[0,0.75,0],[1,0.25,0],[1,0.5,0],[1,0.75,0]];outlineConnect=0;fontColor=#232F3E;fillColor=#E7157B;strokeColor=#ffffff;dashed=0;verticalLabelPosition=bottom;verticalAlign=top;align=center;html=1;fontSize=12;fontStyle=0;aspect=fixed;shape=mxgraph.aws4.resourceIcon;resIcon=mxgraph.aws4.api_gateway;" vertex="1" parent="1">
          <mxGeometry x="260" y="440" width="40" height="40" as="geometry" />
        </mxCell>
        <mxCell id="0-ZlnOKjUgS04xtEcJL--12" value="" style="group;verticalAlign=top;" vertex="1" connectable="0" parent="1">
          <mxGeometry x="85" y="370" width="110" height="50" as="geometry" />
        </mxCell>
        <mxCell id="0-ZlnOKjUgS04xtEcJL--11" value="RIOT API" style="rounded=0;whiteSpace=wrap;html=1;verticalAlign=bottom;" vertex="1" parent="0-ZlnOKjUgS04xtEcJL--12">
          <mxGeometry width="110" height="50" as="geometry" />
        </mxCell>
        <mxCell id="0-ZlnOKjUgS04xtEcJL--8" value="" style="image;aspect=fixed;perimeter=ellipsePerimeter;html=1;align=center;shadow=0;dashed=0;spacingTop=3;image=img/lib/active_directory/internet_globe.svg;" vertex="1" parent="0-ZlnOKjUgS04xtEcJL--12">
          <mxGeometry x="18.333333333333332" y="4.166666666666667" width="25" height="25" as="geometry" />
        </mxCell>
        <mxCell id="0-ZlnOKjUgS04xtEcJL--10" value="" style="aspect=fixed;sketch=0;html=1;dashed=0;whitespace=wrap;verticalLabelPosition=bottom;verticalAlign=top;fillColor=#2875E2;strokeColor=#ffffff;points=[[0.005,0.63,0],[0.1,0.2,0],[0.9,0.2,0],[0.5,0,0],[0.995,0.63,0],[0.72,0.99,0],[0.5,1,0],[0.28,0.99,0]];shape=mxgraph.kubernetes.icon2;kubernetesLabel=1;prIcon=api" vertex="1" parent="0-ZlnOKjUgS04xtEcJL--12">
          <mxGeometry x="60.80250000000001" y="4.166666666666667" width="26.041666666666668" height="25" as="geometry" />
        </mxCell>
        <mxCell id="0-ZlnOKjUgS04xtEcJL--16" value="" style="group" vertex="1" connectable="0" parent="1">
          <mxGeometry x="85" y="470" width="110" height="50" as="geometry" />
        </mxCell>
        <mxCell id="0-ZlnOKjUgS04xtEcJL--15" value="" style="rounded=0;whiteSpace=wrap;html=1;" vertex="1" parent="0-ZlnOKjUgS04xtEcJL--16">
          <mxGeometry width="110" height="49.99999999999999" as="geometry" />
        </mxCell>
        <mxCell id="0-ZlnOKjUgS04xtEcJL--13" value="User" style="sketch=0;outlineConnect=0;fontColor=#232F3E;gradientColor=none;strokeColor=#232F3E;fillColor=#ffffff;dashed=0;verticalLabelPosition=bottom;verticalAlign=top;align=center;html=1;fontSize=12;fontStyle=0;aspect=fixed;shape=mxgraph.aws4.resourceIcon;resIcon=mxgraph.aws4.user;" vertex="1" parent="0-ZlnOKjUgS04xtEcJL--16">
          <mxGeometry x="10.999999999999998" y="0.9090909090909087" width="25" height="25" as="geometry" />
        </mxCell>
        <mxCell id="0-ZlnOKjUgS04xtEcJL--14" value="" style="points=[[0.03,0.03,0],[0.5,0,0],[0.97,0.03,0],[1,0.4,0],[0.97,0.745,0],[0.5,1,0],[0.03,0.745,0],[0,0.4,0]];verticalLabelPosition=bottom;sketch=0;html=1;verticalAlign=top;aspect=fixed;align=center;pointerEvents=1;shape=mxgraph.cisco19.workstation;fillColor=#005073;strokeColor=none;" vertex="1" parent="0-ZlnOKjUgS04xtEcJL--16">
          <mxGeometry x="62" y="4.454545454545453" width="31.25" height="25" as="geometry" />
        </mxCell>
        <mxCell id="0-ZlnOKjUgS04xtEcJL--17" style="edgeStyle=orthogonalEdgeStyle;rounded=0;orthogonalLoop=1;jettySize=auto;html=1;entryX=0;entryY=0.5;entryDx=0;entryDy=0;entryPerimeter=0;startArrow=classic;startFill=1;" edge="1" parent="1" source="0-ZlnOKjUgS04xtEcJL--11" target="0-ZlnOKjUgS04xtEcJL--7">
          <mxGeometry relative="1" as="geometry" />
        </mxCell>
        <mxCell id="0-ZlnOKjUgS04xtEcJL--18" style="edgeStyle=orthogonalEdgeStyle;rounded=0;orthogonalLoop=1;jettySize=auto;html=1;" edge="1" parent="1" source="0-ZlnOKjUgS04xtEcJL--15" target="0-ZlnOKjUgS04xtEcJL--7">
          <mxGeometry relative="1" as="geometry" />
        </mxCell>
        <mxCell id="0-ZlnOKjUgS04xtEcJL--19" value="" style="edgeStyle=orthogonalEdgeStyle;rounded=0;orthogonalLoop=1;jettySize=auto;html=1;startArrow=classic;startFill=1;" edge="1" parent="1" source="0-ZlnOKjUgS04xtEcJL--15" target="0-ZlnOKjUgS04xtEcJL--7">
          <mxGeometry relative="1" as="geometry" />
        </mxCell>
        <mxCell id="0-ZlnOKjUgS04xtEcJL--20" value="" style="group;verticalAlign=top;" vertex="1" connectable="0" parent="1">
          <mxGeometry x="359" y="490" width="110" height="50" as="geometry" />
        </mxCell>
        <mxCell id="0-ZlnOKjUgS04xtEcJL--21" value="Front End" style="rounded=0;whiteSpace=wrap;html=1;verticalAlign=bottom;" vertex="1" parent="0-ZlnOKjUgS04xtEcJL--20">
          <mxGeometry width="110" height="50" as="geometry" />
        </mxCell>
        <mxCell id="0-ZlnOKjUgS04xtEcJL--23" value="" style="aspect=fixed;sketch=0;html=1;dashed=0;whitespace=wrap;verticalLabelPosition=bottom;verticalAlign=top;fillColor=#2875E2;strokeColor=#ffffff;points=[[0.005,0.63,0],[0.1,0.2,0],[0.9,0.2,0],[0.5,0,0],[0.995,0.63,0],[0.72,0.99,0],[0.5,1,0],[0.28,0.99,0]];shape=mxgraph.kubernetes.icon2;kubernetesLabel=1;prIcon=api" vertex="1" parent="0-ZlnOKjUgS04xtEcJL--20">
          <mxGeometry x="60.80250000000001" y="4.166666666666667" width="26.041666666666668" height="25" as="geometry" />
        </mxCell>
        <mxCell id="0-ZlnOKjUgS04xtEcJL--24" value="" style="sketch=0;points=[[0,0,0],[0.25,0,0],[0.5,0,0],[0.75,0,0],[1,0,0],[0,1,0],[0.25,1,0],[0.5,1,0],[0.75,1,0],[1,1,0],[0,0.25,0],[0,0.5,0],[0,0.75,0],[1,0.25,0],[1,0.5,0],[1,0.75,0]];outlineConnect=0;fontColor=#232F3E;fillColor=#ED7100;strokeColor=#ffffff;dashed=0;verticalLabelPosition=bottom;verticalAlign=top;align=center;html=1;fontSize=12;fontStyle=0;aspect=fixed;shape=mxgraph.aws4.resourceIcon;resIcon=mxgraph.aws4.ec2;" vertex="1" parent="0-ZlnOKjUgS04xtEcJL--20">
          <mxGeometry x="21" y="4.170000000000016" width="28" height="28" as="geometry" />
        </mxCell>
        <mxCell id="0-ZlnOKjUgS04xtEcJL--26" value="" style="group;verticalAlign=top;" vertex="1" connectable="0" parent="1">
          <mxGeometry x="530" y="490" width="110" height="50" as="geometry" />
        </mxCell>
        <mxCell id="0-ZlnOKjUgS04xtEcJL--27" value="Back End" style="rounded=0;whiteSpace=wrap;html=1;verticalAlign=bottom;" vertex="1" parent="0-ZlnOKjUgS04xtEcJL--26">
          <mxGeometry width="110" height="50" as="geometry" />
        </mxCell>
        <mxCell id="0-ZlnOKjUgS04xtEcJL--28" value="" style="aspect=fixed;sketch=0;html=1;dashed=0;whitespace=wrap;verticalLabelPosition=bottom;verticalAlign=top;fillColor=#2875E2;strokeColor=#ffffff;points=[[0.005,0.63,0],[0.1,0.2,0],[0.9,0.2,0],[0.5,0,0],[0.995,0.63,0],[0.72,0.99,0],[0.5,1,0],[0.28,0.99,0]];shape=mxgraph.kubernetes.icon2;kubernetesLabel=1;prIcon=api" vertex="1" parent="0-ZlnOKjUgS04xtEcJL--26">
          <mxGeometry x="60.80250000000001" y="4.166666666666667" width="26.041666666666668" height="25" as="geometry" />
        </mxCell>
        <mxCell id="0-ZlnOKjUgS04xtEcJL--29" value="" style="sketch=0;points=[[0,0,0],[0.25,0,0],[0.5,0,0],[0.75,0,0],[1,0,0],[0,1,0],[0.25,1,0],[0.5,1,0],[0.75,1,0],[1,1,0],[0,0.25,0],[0,0.5,0],[0,0.75,0],[1,0.25,0],[1,0.5,0],[1,0.75,0]];outlineConnect=0;fontColor=#232F3E;fillColor=#ED7100;strokeColor=#ffffff;dashed=0;verticalLabelPosition=bottom;verticalAlign=top;align=center;html=1;fontSize=12;fontStyle=0;aspect=fixed;shape=mxgraph.aws4.resourceIcon;resIcon=mxgraph.aws4.ec2;" vertex="1" parent="0-ZlnOKjUgS04xtEcJL--26">
          <mxGeometry x="21" y="4.170000000000016" width="28" height="28" as="geometry" />
        </mxCell>
        <mxCell id="0-ZlnOKjUgS04xtEcJL--30" style="edgeStyle=orthogonalEdgeStyle;rounded=0;orthogonalLoop=1;jettySize=auto;html=1;entryX=0;entryY=0.5;entryDx=0;entryDy=0;startArrow=classic;startFill=1;" edge="1" parent="1" source="0-ZlnOKjUgS04xtEcJL--21" target="0-ZlnOKjUgS04xtEcJL--27">
          <mxGeometry relative="1" as="geometry" />
        </mxCell>
        <mxCell id="0-ZlnOKjUgS04xtEcJL--31" value="" style="sketch=0;points=[[0,0,0],[0.25,0,0],[0.5,0,0],[0.75,0,0],[1,0,0],[0,1,0],[0.25,1,0],[0.5,1,0],[0.75,1,0],[1,1,0],[0,0.25,0],[0,0.5,0],[0,0.75,0],[1,0.25,0],[1,0.5,0],[1,0.75,0]];outlineConnect=0;fontColor=#232F3E;fillColor=#7AA116;strokeColor=#ffffff;dashed=0;verticalLabelPosition=bottom;verticalAlign=top;align=center;html=1;fontSize=12;fontStyle=0;aspect=fixed;shape=mxgraph.aws4.resourceIcon;resIcon=mxgraph.aws4.s3;" vertex="1" parent="1">
          <mxGeometry x="576" y="402" width="18" height="18" as="geometry" />
        </mxCell>
        <mxCell id="0-ZlnOKjUgS04xtEcJL--37" value="" style="group" vertex="1" connectable="0" parent="1">
          <mxGeometry x="359" y="400" width="160" height="70" as="geometry" />
        </mxCell>
        <mxCell id="0-ZlnOKjUgS04xtEcJL--33" value="Data Integration" style="rounded=0;whiteSpace=wrap;html=1;verticalAlign=top;" vertex="1" parent="0-ZlnOKjUgS04xtEcJL--37">
          <mxGeometry width="159.06" height="70" as="geometry" />
        </mxCell>
        <mxCell id="0-ZlnOKjUgS04xtEcJL--34" value="" style="shape=image;verticalLabelPosition=bottom;labelBackgroundColor=default;verticalAlign=top;aspect=fixed;imageAspect=0;image=https://saturncloud.io/images/glossary/jupyter-notebook.png;" vertex="1" parent="0-ZlnOKjUgS04xtEcJL--37">
          <mxGeometry y="30" width="56.470588235294116" height="29.647058823529413" as="geometry" />
        </mxCell>
        <mxCell id="0-ZlnOKjUgS04xtEcJL--35" value="" style="shape=image;verticalLabelPosition=bottom;labelBackgroundColor=default;verticalAlign=top;aspect=fixed;imageAspect=0;image=https://miro.medium.com/v2/resize:fit:770/1*pJnfAWcDbz7qnQr7at3jkw.png;" vertex="1" parent="0-ZlnOKjUgS04xtEcJL--37">
          <mxGeometry x="75.29411764705883" y="29.649999999999977" width="71.67058823529412" height="29.976470588235294" as="geometry" />
        </mxCell>
        <mxCell id="0-ZlnOKjUgS04xtEcJL--60" value="" style="sketch=0;points=[[0,0,0],[0.25,0,0],[0.5,0,0],[0.75,0,0],[1,0,0],[0,1,0],[0.25,1,0],[0.5,1,0],[0.75,1,0],[1,1,0],[0,0.25,0],[0,0.5,0],[0,0.75,0],[1,0.25,0],[1,0.5,0],[1,0.75,0]];outlineConnect=0;fontColor=#232F3E;fillColor=#ED7100;strokeColor=#ffffff;dashed=0;verticalLabelPosition=bottom;verticalAlign=top;align=center;html=1;fontSize=12;fontStyle=0;aspect=fixed;shape=mxgraph.aws4.resourceIcon;resIcon=mxgraph.aws4.ec2;" vertex="1" parent="0-ZlnOKjUgS04xtEcJL--37">
          <mxGeometry width="18" height="18" as="geometry" />
        </mxCell>
        <mxCell id="0-ZlnOKjUgS04xtEcJL--45" style="edgeStyle=orthogonalEdgeStyle;rounded=0;orthogonalLoop=1;jettySize=auto;html=1;startArrow=classic;startFill=1;endArrow=none;endFill=0;" edge="1" parent="1" source="0-ZlnOKjUgS04xtEcJL--39" target="0-ZlnOKjUgS04xtEcJL--41">
          <mxGeometry relative="1" as="geometry" />
        </mxCell>
        <mxCell id="0-ZlnOKjUgS04xtEcJL--47" style="edgeStyle=orthogonalEdgeStyle;rounded=0;orthogonalLoop=1;jettySize=auto;html=1;" edge="1" parent="1" source="0-ZlnOKjUgS04xtEcJL--39" target="0-ZlnOKjUgS04xtEcJL--31">
          <mxGeometry relative="1" as="geometry">
            <Array as="points">
              <mxPoint x="630" y="411" />
            </Array>
          </mxGeometry>
        </mxCell>
        <mxCell id="0-ZlnOKjUgS04xtEcJL--39" value="" style="sketch=0;points=[[0,0,0],[0.25,0,0],[0.5,0,0],[0.75,0,0],[1,0,0],[0,1,0],[0.25,1,0],[0.5,1,0],[0.75,1,0],[1,1,0],[0,0.25,0],[0,0.5,0],[0,0.75,0],[1,0.25,0],[1,0.5,0],[1,0.75,0]];outlineConnect=0;fontColor=#232F3E;fillColor=#ED7100;strokeColor=#ffffff;dashed=0;verticalLabelPosition=bottom;verticalAlign=top;align=center;html=1;fontSize=12;fontStyle=0;aspect=fixed;shape=mxgraph.aws4.resourceIcon;resIcon=mxgraph.aws4.lambda;" vertex="1" parent="1">
          <mxGeometry x="622" y="440" width="18" height="18" as="geometry" />
        </mxCell>
        <mxCell id="0-ZlnOKjUgS04xtEcJL--41" value="" style="sketch=0;points=[[0,0,0],[0.25,0,0],[0.5,0,0],[0.75,0,0],[1,0,0],[0,1,0],[0.25,1,0],[0.5,1,0],[0.75,1,0],[1,1,0],[0,0.25,0],[0,0.5,0],[0,0.75,0],[1,0.25,0],[1,0.5,0],[1,0.75,0]];outlineConnect=0;fontColor=#232F3E;fillColor=#E7157B;strokeColor=#ffffff;dashed=0;verticalLabelPosition=bottom;verticalAlign=top;align=center;html=1;fontSize=12;fontStyle=0;aspect=fixed;shape=mxgraph.aws4.resourceIcon;resIcon=mxgraph.aws4.sqs;" vertex="1" parent="1">
          <mxGeometry x="576" y="440" width="18" height="18" as="geometry" />
        </mxCell>
        <mxCell id="0-ZlnOKjUgS04xtEcJL--43" style="edgeStyle=orthogonalEdgeStyle;rounded=0;orthogonalLoop=1;jettySize=auto;html=1;startArrow=classic;startFill=1;" edge="1" parent="1" source="0-ZlnOKjUgS04xtEcJL--27" target="0-ZlnOKjUgS04xtEcJL--41">
          <mxGeometry relative="1" as="geometry" />
        </mxCell>
        <mxCell id="0-ZlnOKjUgS04xtEcJL--50" style="edgeStyle=orthogonalEdgeStyle;rounded=0;orthogonalLoop=1;jettySize=auto;html=1;" edge="1" parent="1" source="0-ZlnOKjUgS04xtEcJL--49" target="0-ZlnOKjUgS04xtEcJL--41">
          <mxGeometry relative="1" as="geometry">
            <Array as="points">
              <mxPoint x="540" y="449" />
            </Array>
          </mxGeometry>
        </mxCell>
        <mxCell id="0-ZlnOKjUgS04xtEcJL--53" style="edgeStyle=orthogonalEdgeStyle;rounded=0;orthogonalLoop=1;jettySize=auto;html=1;startArrow=classic;startFill=1;endArrow=none;endFill=0;" edge="1" parent="1" source="0-ZlnOKjUgS04xtEcJL--49">
          <mxGeometry relative="1" as="geometry">
            <mxPoint x="558.0000000000001" y="410.9632362459547" as="sourcePoint" />
            <mxPoint x="576" y="410.9632362459547" as="targetPoint" />
          </mxGeometry>
        </mxCell>
        <mxCell id="0-ZlnOKjUgS04xtEcJL--49" value="" style="sketch=0;points=[[0,0,0],[0.25,0,0],[0.5,0,0],[0.75,0,0],[1,0,0],[0,1,0],[0.25,1,0],[0.5,1,0],[0.75,1,0],[1,1,0],[0,0.25,0],[0,0.5,0],[0,0.75,0],[1,0.25,0],[1,0.5,0],[1,0.75,0]];outlineConnect=0;fontColor=#232F3E;fillColor=#ED7100;strokeColor=#ffffff;dashed=0;verticalLabelPosition=bottom;verticalAlign=top;align=center;html=1;fontSize=12;fontStyle=0;aspect=fixed;shape=mxgraph.aws4.resourceIcon;resIcon=mxgraph.aws4.lambda;" vertex="1" parent="1">
          <mxGeometry x="530" y="402" width="18" height="18" as="geometry" />
        </mxCell>
        <mxCell id="0-ZlnOKjUgS04xtEcJL--57" value="" style="shape=image;verticalLabelPosition=bottom;labelBackgroundColor=default;verticalAlign=top;aspect=fixed;imageAspect=0;image=https://upload.wikimedia.org/wikipedia/commons/thumb/c/c3/Python-logo-notext.svg/1869px-Python-logo-notext.svg.png;" vertex="1" parent="1">
          <mxGeometry x="542" y="401.9999999999999" width="6" height="6.58" as="geometry" />
        </mxCell>
        <mxCell id="0-ZlnOKjUgS04xtEcJL--62" style="edgeStyle=orthogonalEdgeStyle;rounded=0;orthogonalLoop=1;jettySize=auto;html=1;" edge="1" parent="1" source="0-ZlnOKjUgS04xtEcJL--33" target="0-ZlnOKjUgS04xtEcJL--31">
          <mxGeometry relative="1" as="geometry">
            <Array as="points">
              <mxPoint x="439" y="390" />
              <mxPoint x="585" y="390" />
            </Array>
          </mxGeometry>
        </mxCell>
        <mxCell id="0-ZlnOKjUgS04xtEcJL--63" value="&lt;font style=&quot;font-size: 5px;&quot;&gt;gRpc&lt;/font&gt;" style="text;html=1;align=center;verticalAlign=middle;whiteSpace=wrap;rounded=0;" vertex="1" parent="1">
          <mxGeometry x="482.58" y="503" width="30" height="10" as="geometry" />
        </mxCell>
      </root>
    </mxGraphModel>
  </diagram>
</mxfile>
